<svg xmlns="http://www.w3.org/2000/svg" version="1.1" xmlns:xlink="http://www.w3.org/1999/xlink" xmlns:svgjs="http://svgjs.dev/svgjs" width="65" height="61"><svg width="65" height="61" viewBox="0 0 65 61" fill="none" xmlns="http://www.w3.org/2000/svg">
<g opacity="0.9">
<rect width="65" height="61" rx="7" fill="black"></rect>
<path d="M17.3572 47.9422C17.3572 48.9778 16.5711 49.7678 15.6607 49.7678C14.7504 49.7678 13.9643 48.9778 13.9643 47.9422C13.9643 46.9066 14.7504 46.1166 15.6607 46.1166C16.5711 46.1166 17.3572 46.9066 17.3572 47.9422Z" fill="#F0F0F0" stroke="#F0F0F0"></path>
<path d="M17.3571 32.438C17.3571 33.9017 16.2433 35.0388 14.9286 35.0388C13.6139 35.0388 12.5 33.9017 12.5 32.438C12.5 30.9743 13.6139 29.8372 14.9286 29.8372C16.2433 29.8372 17.3571 30.9743 17.3571 32.438Z" fill="#F0F0F0" stroke="#F0F0F0"></path>
<path d="M29.0714 23.9107C29.0714 25.3745 27.9576 26.5116 26.6429 26.5116C25.3281 26.5116 24.2143 25.3745 24.2143 23.9107C24.2143 22.447 25.3281 21.3099 26.6429 21.3099C27.9576 21.3099 29.0714 22.447 29.0714 23.9107Z" fill="#F0F0F0" stroke="#F0F0F0"></path>
<path d="M52.5 13.833C52.5 15.2967 51.3861 16.4338 50.0714 16.4338C48.7567 16.4338 47.6428 15.2967 47.6428 13.833C47.6428 12.3693 48.7567 11.2321 50.0714 11.2321C51.3861 11.2321 52.5 12.3693 52.5 13.833Z" fill="#F0F0F0" stroke="#F0F0F0"></path>
<path d="M29.0714 47.9422C29.0714 48.9778 28.2854 49.7678 27.375 49.7678C26.4646 49.7678 25.6786 48.9778 25.6786 47.9422C25.6786 46.9066 26.4646 46.1166 27.375 46.1166C28.2854 46.1166 29.0714 46.9066 29.0714 47.9422Z" fill="#F0F0F0" stroke="#F0F0F0"></path>
<path d="M40.7857 47.9422C40.7857 48.9778 39.9996 49.7678 39.0893 49.7678C38.1789 49.7678 37.3928 48.9778 37.3928 47.9422C37.3928 46.9066 38.1789 46.1166 39.0893 46.1166C39.9996 46.1166 40.7857 46.9066 40.7857 47.9422Z" fill="#F0F0F0" stroke="#F0F0F0"></path>
<path d="M52.5 47.9422C52.5 48.9778 51.7139 49.7678 50.8036 49.7678C49.8932 49.7678 49.1071 48.9778 49.1071 47.9422C49.1071 46.9066 49.8932 46.1166 50.8036 46.1166C51.7139 46.1166 52.5 46.9066 52.5 47.9422Z" fill="#F0F0F0" stroke="#F0F0F0"></path>
<line y1="-1.5" x2="14.4893" y2="-1.5" transform="matrix(0.808479 -0.588525 0.544579 0.83871 15.6607 33.9885)" stroke="#F0F0F0" stroke-width="3"></line>
<line y1="-1.5" x2="12.6039" y2="-1.5" transform="matrix(0.929416 0.369033 -0.333847 0.942627 27.375 25.4611)" stroke="#F0F0F0" stroke-width="3"></line>
<line y1="-1.5" x2="18.8193" y2="-1.5" transform="matrix(0.62246 -0.782652 0.746388 0.665511 39.0893 29.3372)" stroke="#F0F0F0" stroke-width="3"></line>
<path d="M44.9464 29.3372C44.9464 32.7623 42.3241 35.5389 39.0893 35.5389C35.8545 35.5389 33.2321 32.7623 33.2321 29.3372C33.2321 25.9121 35.8545 23.1355 39.0893 23.1355C42.3241 23.1355 44.9464 25.9121 44.9464 29.3372Z" fill="#F0F0F0"></path>
<path d="M42.0178 29.3372C42.0178 31.0497 40.7067 32.438 39.0893 32.438C37.4719 32.438 36.1607 31.0497 36.1607 29.3372C36.1607 27.6247 37.4719 26.2364 39.0893 26.2364C40.7067 26.2364 42.0178 27.6247 42.0178 29.3372Z" fill="black"></path>
<path d="M44.4464 29.3372C44.4464 32.5135 42.0214 35.0389 39.0893 35.0389C36.1572 35.0389 33.7321 32.5135 33.7321 29.3372C33.7321 26.1609 36.1572 23.6355 39.0893 23.6355C42.0214 23.6355 44.4464 26.1609 44.4464 29.3372ZM41.5178 29.3372C41.5178 30.8009 40.404 31.938 39.0893 31.938C37.7746 31.938 36.6607 30.8009 36.6607 29.3372C36.6607 27.8735 37.7746 26.7364 39.0893 26.7364C40.404 26.7364 41.5178 27.8735 41.5178 29.3372ZM39.0893 32.938C41.0094 32.938 42.5178 31.2986 42.5178 29.3372C42.5178 27.3758 41.0094 25.7364 39.0893 25.7364C37.1692 25.7364 35.6607 27.3758 35.6607 29.3372C35.6607 31.2986 37.1692 32.938 39.0893 32.938Z" stroke="#F0F0F0"></path>
</g>
</svg><style>@media (prefers-color-scheme: light) { :root { filter: none; } }
@media (prefers-color-scheme: dark) { :root { filter: none; } }
</style></svg>